<svg width="423" height="856" fill="none" xmlns="http://www.w3.org/2000/svg"><g clip-path="url(#a)"><path fill-rule="evenodd" clip-rule="evenodd" d="M329.38 2c11.66 0 21.59 0 29.75.67 8.57.7 16.93 2.23 24.93 6.3a64 64 0 0 1 27.96 27.97c4.08 8 5.61 16.36 6.31 24.93.67 8.16.67 18.1.67 29.74V764.4c0 11.65 0 21.58-.67 29.74-.7 8.57-2.23 16.93-6.3 24.92a63.98 63.98 0 0 1-27.97 27.97c-8 4.08-16.36 5.61-24.93 6.31-8.16.67-18.1.67-29.74.67H93.6c-11.65 0-21.58 0-29.74-.67-8.57-.7-16.93-2.23-24.93-6.3a64 64 0 0 1-27.96-27.98c-4.08-7.99-5.61-16.35-6.31-24.92C4 785.97 4 776.03 4 764.38V91.62c0-11.65 0-21.58.67-29.74.7-8.57 2.23-16.93 6.3-24.93A64 64 0 0 1 38.95 8.98c8-4.08 16.36-5.61 24.93-6.31C72.03 2 81.97 2 93.61 2h235.77ZM28.8 46.02C24 55.44 24 67.76 24 92.4v671.2c0 24.64 0 36.96 4.8 46.38a44 44 0 0 0 19.22 19.22c9.42 4.8 21.74 4.8 46.38 4.8h234.2c24.64 0 36.96 0 46.38-4.8a44 44 0 0 0 19.22-19.22c4.8-9.42 4.8-21.74 4.8-46.38V92.4c0-24.64 0-36.96-4.8-46.38a44 44 0 0 0-19.22-19.22C365.56 22 353.24 22 328.6 22H94.4c-24.64 0-36.96 0-46.38 4.8A44 44 0 0 0 28.8 46.02Z" fill="#000"/><path d="M127 22.03V17.5h168.22v4.53a7.07 7.07 0 0 0-6.13 7c0 13.15-8.32 21.91-22.78 21.91h-110.4c-14.45 0-22.78-8.76-22.78-21.9a7.07 7.07 0 0 0-6.13-7.01Z" fill="#060709"/><path d="M155.04 37.8a6.13 6.13 0 1 1 0-12.27 6.13 6.13 0 0 1 0 12.27ZM179.57 11.51c0-.96.78-1.75 1.75-1.75h59.58a1.75 1.75 0 1 1 0 3.5h-59.58c-.97 0-1.75-.78-1.75-1.75Z" fill="#2B2B29"/><path d="M160.3 31.67a5.26 5.26 0 1 1-10.52 0 5.26 5.26 0 0 1 10.51 0Z" fill="#1C1D22"/><path d="M157.66 31.67a2.63 2.63 0 1 1-5.25 0 2.63 2.63 0 0 1 5.25 0Z" fill="#26295F"/><path fill-rule="evenodd" clip-rule="evenodd" d="M329.46 0c11.6 0 21.6 0 29.83.67 8.7.71 17.35 2.28 25.67 6.52a66 66 0 0 1 28.85 28.85c4.24 8.32 5.8 16.97 6.52 25.67.67 8.24.67 18.24.67 29.83V218h1.5c.28 0 .5.22.5.5v100a.5.5 0 0 1-.5.5H421v445.46c0 11.6 0 21.6-.67 29.83-.71 8.7-2.28 17.35-6.52 25.67a65.99 65.99 0 0 1-28.85 28.85c-8.32 4.24-16.97 5.8-25.67 6.52-8.24.67-18.24.67-29.83.67H93.54c-11.59 0-21.6 0-29.83-.67-8.7-.71-17.35-2.28-25.67-6.52a66 66 0 0 1-28.85-28.85C4.95 811.64 3.4 803 2.67 794.3 2 786.05 2 776.05 2 764.46V339H.5a.5.5 0 0 1-.5-.5v-62c0-.28.22-.5.5-.5H2v-15H.5a.5.5 0 0 1-.5-.5v-62c0-.28.22-.5.5-.5H2v-31H.5a.5.5 0 0 1-.5-.5v-31c0-.28.22-.5.5-.5H2V91.54c0-11.6 0-21.6.67-29.83.71-8.7 2.28-17.35 6.52-25.67A66 66 0 0 1 38.04 7.19C46.36 2.95 55 1.4 63.7.67 71.95 0 81.95 0 93.54 0h235.92Zm29.67 2.67C350.97 2 341.03 2 329.38 2H93.61c-11.65 0-21.58 0-29.74.67-8.57.7-16.93 2.23-24.93 6.3a64 64 0 0 0-27.96 27.97c-4.08 8-5.61 16.36-6.31 24.93C4 70.03 4 79.97 4 91.61v672.77c0 11.66 0 21.59.67 29.75.7 8.57 2.23 16.93 6.3 24.92a64 64 0 0 0 27.97 27.97c8 4.08 16.36 5.61 24.93 6.31 8.16.67 18.1.67 29.74.67H329.4c11.65 0 21.58 0 29.74-.67 8.57-.7 16.93-2.23 24.93-6.3a63.98 63.98 0 0 0 27.96-27.98c4.08-7.99 5.61-16.35 6.31-24.92.67-8.16.67-18.1.67-29.74V91.6c0-11.65 0-21.58-.67-29.74-.7-8.57-2.23-16.93-6.3-24.93a64 64 0 0 0-27.97-27.96c-8-4.08-16.36-5.61-24.93-6.31Z" fill="#C8C2BA"/><path d="M329.44 0h5.26v1.75h-5.26V0ZM2.25 93v-5H4v5H2.25ZM419 93v-5h1.75v5H419ZM2.25 762v-5H4v5H2.25ZM419 762v-5h1.75v5H419ZM88 854h5v1.69h-5V854Z" fill="#F8F4EE"/></g><defs><clipPath id="a"><path fill="#fff" d="M0 0h423v856H0z"/></clipPath></defs></svg>