<svg width="1650" height="952" fill="none" xmlns="http://www.w3.org/2000/svg"><g clip-path="url(#a)"><path fill-rule="evenodd" clip-rule="evenodd" d="M192.45.89c-23.37 0-42.3 19.14-42.3 42.76V897.6c0 23.62 18.93 42.77 42.3 42.77h1265.11c23.36 0 42.3-19.15 42.3-42.77V43.65c0-23.62-18.94-42.76-42.3-42.76H192.45ZM1465 59H185v800h1280V59Z" fill="#000"/><path fill-rule="evenodd" clip-rule="evenodd" d="M1457.56 6.21H192.45c-20.37 0-36.98 16.7-36.98 37.44V897.6c0 20.74 16.61 37.44 36.98 37.44h1265.11c20.36 0 36.97-16.7 36.97-37.44V43.65c0-20.73-16.61-37.44-36.97-37.44ZM192.45.9c-23.37 0-42.3 19.14-42.3 42.76V897.6c0 23.62 18.93 42.77 42.3 42.77h1265.11c23.36 0 42.3-19.15 42.3-42.77V43.65c0-23.62-18.94-42.76-42.3-42.76H192.45Z" fill="#C4C4C4"/><path d="M159.83 879.34h1330.35v17.43c0 19.26-15.47 34.87-34.56 34.87H194.38c-19.08 0-34.55-15.61-34.55-34.87v-17.43Z" fill="#1C1C1C"/><path d="M.07 920.99s21.62 11.07 91.14 21.71c80.42 12.31 694.47 7.3 727.09 7.3 30.38 0 660.74 5.01 741.16-7.3 69.52-10.64 90.47-21.72 90.47-21.72H.07Z" fill="#5C5D61"/><path d="M.07 913.51c0-.68.6-1.24 1.33-1.24h1647.2c.74 0 1.33.56 1.33 1.24V921H.07v-7.48Z" fill="#C4C4C4"/><path d="M784.57 903.36v-15.3h-2.17l-5.17 12.87h-.08l-5.17-12.87h-2.17v15.3h1.75v-11.8h.07l4.77 11.8h1.58l4.77-11.8h.08v11.8h1.74ZM790.04 903.55c1.46 0 2.83-.82 3.47-2.09h.04v1.9h1.71v-7.63c0-2.2-1.6-3.6-4.13-3.6-2.55 0-4.15 1.47-4.27 3.38h1.74c.23-1.08 1.1-1.75 2.5-1.75 1.49 0 2.36.8 2.36 2.15v.93l-3.1.18c-2.49.15-3.9 1.34-3.9 3.22 0 1.99 1.43 3.31 3.58 3.31Zm.4-1.57c-1.3 0-2.15-.69-2.15-1.74 0-1.04.83-1.7 2.28-1.79l2.89-.18v.9c0 1.6-1.31 2.81-3.01 2.81ZM806.53 895.95c-.23-1.99-1.84-3.81-4.54-3.81-2.98 0-4.96 2.23-4.96 5.7 0 3.56 2 5.71 4.98 5.71 2.45 0 4.26-1.55 4.54-3.74h-1.78c-.31 1.32-1.27 2.12-2.75 2.12-1.87 0-3.15-1.52-3.15-4.08 0-2.5 1.26-4.09 3.13-4.09 1.59 0 2.5.99 2.76 2.19h1.77ZM814.14 903.36c3.2 0 5.08-1.6 5.08-4.3 0-2.03-1.3-3.5-3.34-3.76v-.08c1.44-.27 2.58-1.75 2.58-3.35 0-2.29-1.73-3.81-4.3-3.81h-5.67v15.3h5.65Zm-3.78-13.62h3.38c1.82 0 2.83.84 2.83 2.36 0 1.65-1.2 2.55-3.41 2.55h-2.8v-4.9Zm0 11.93v-5.37h3.33c2.38 0 3.61.9 3.61 2.67s-1.18 2.7-3.44 2.7h-3.5ZM825.53 903.55c2.98 0 5-2.2 5-5.7 0-3.53-2.02-5.71-5-5.71-2.99 0-5 2.18-5 5.7s2.01 5.71 5 5.71Zm0-1.62c-1.9 0-3.16-1.49-3.16-4.08 0-2.6 1.25-4.09 3.16-4.09 1.91 0 3.16 1.49 3.16 4.09 0 2.6-1.25 4.08-3.16 4.08ZM836.83 903.55c2.97 0 4.99-2.2 4.99-5.7 0-3.53-2.02-5.71-5-5.71-2.99 0-5 2.18-5 5.7s2.01 5.71 5 5.71Zm0-1.62c-1.92 0-3.17-1.49-3.17-4.08 0-2.6 1.25-4.09 3.17-4.09 1.9 0 3.15 1.49 3.15 4.09 0 2.6-1.25 4.08-3.15 4.08ZM845.54 899.2l1.01-.97 4 5.13h2.1l-4.82-6.27 4.68-4.76h-2.2l-4.77 4.9v-9.17h-1.8v15.3h1.8v-4.16ZM868.34 903.36h1.96l-5.52-15.3h-1.85l-5.52 15.3h1.96l1.5-4.38h5.96l1.5 4.38Zm-4.52-12.98h.07l2.4 6.98h-4.86l2.4-6.98ZM872.73 890.37c.63 0 1.13-.52 1.13-1.16 0-.64-.5-1.15-1.13-1.15-.62 0-1.13.5-1.13 1.15 0 .64.5 1.16 1.13 1.16Zm-.9 13h1.8v-11.04h-1.8v11.03ZM876.07 903.36h1.8v-6.87c0-1.56.92-2.59 2.32-2.59.44 0 .82.05.97.1v-1.79c-.15-.02-.42-.07-.73-.07-1.26 0-2.26.77-2.61 2h-.05v-1.81h-1.7v11.03Z" fill="#fff"/><path d="M842.43 31.88a6.78 6.78 0 1 1-13.56 0 6.78 6.78 0 0 1 13.56 0Z" fill="#2B2B29"/><path d="M841.46 31.88a5.81 5.81 0 1 1-11.62 0 5.81 5.81 0 0 1 11.62 0Z" fill="#1C1D22"/><path d="M838.56 31.88a2.9 2.9 0 1 1-5.81 0 2.9 2.9 0 0 1 5.8 0Z" fill="#26295F"/></g><defs><clipPath id="a"><path fill="#fff" transform="translate(.07 .89)" d="M0 0h1649.86v950.12H0z"/></clipPath></defs></svg>